<mxfile host="app.diagrams.net" modified="2021-08-30T10:51:06.094Z" agent="5.0 (Macintosh; Intel Mac OS X 10_15_7) AppleWebKit/605.1.15 (KHTML, like Gecko) Version/14.1 Safari/605.1.15" etag="gmpvxS_f0REyHol-U7aU" version="14.9.9" type="github">
  <diagram id="C5RBs43oDa-KdzZeNtuy" name="Page-1">
    <mxGraphModel dx="974" dy="894" grid="1" gridSize="10" guides="1" tooltips="1" connect="1" arrows="1" fold="1" page="1" pageScale="1" pageWidth="827" pageHeight="1169" math="0" shadow="0">
      <root>
        <mxCell id="WIyWlLk6GJQsqaUBKTNV-0" />
        <mxCell id="WIyWlLk6GJQsqaUBKTNV-1" parent="WIyWlLk6GJQsqaUBKTNV-0" />
        <mxCell id="bm_DXyIlBuVDCkVGSls3-32" value="" style="rounded=0;whiteSpace=wrap;html=1;shadow=0;dashed=1;sketch=0;fontSize=15;gradientColor=none;align=left;verticalAlign=bottom;" parent="WIyWlLk6GJQsqaUBKTNV-1" vertex="1">
          <mxGeometry x="80" y="120" width="1360" height="520" as="geometry" />
        </mxCell>
        <mxCell id="bm_DXyIlBuVDCkVGSls3-18" value="中间文件 .ll / .bc" style="edgeStyle=orthogonalEdgeStyle;rounded=0;orthogonalLoop=1;jettySize=auto;html=1;exitX=0.5;exitY=1;exitDx=0;exitDy=0;entryX=0.5;entryY=0;entryDx=0;entryDy=0;fontSize=15;" parent="WIyWlLk6GJQsqaUBKTNV-1" source="bm_DXyIlBuVDCkVGSls3-0" target="bm_DXyIlBuVDCkVGSls3-17" edge="1">
          <mxGeometry relative="1" as="geometry" />
        </mxCell>
        <mxCell id="bm_DXyIlBuVDCkVGSls3-0" value="" style="rounded=0;whiteSpace=wrap;html=1;fontSize=15;" parent="WIyWlLk6GJQsqaUBKTNV-1" vertex="1">
          <mxGeometry x="150" y="180" width="1215" height="180" as="geometry" />
        </mxCell>
        <mxCell id="bm_DXyIlBuVDCkVGSls3-16" value="如果开启了bitcode" style="verticalLabelPosition=top;verticalAlign=bottom;shape=mxgraph.basic.three_corner_round_rect;dx=6;fontSize=15;labelPosition=center;align=center;dashed=1;spacing=2;html=1;labelBorderColor=none;shadow=0;sketch=0;" parent="WIyWlLk6GJQsqaUBKTNV-1" vertex="1">
          <mxGeometry x="922.25" y="215.63" width="204.5" height="108.75" as="geometry" />
        </mxCell>
        <mxCell id="bm_DXyIlBuVDCkVGSls3-1" value="Clang" style="text;html=1;strokeColor=none;fillColor=none;align=left;verticalAlign=middle;whiteSpace=wrap;rounded=0;fontSize=15;" parent="WIyWlLk6GJQsqaUBKTNV-1" vertex="1">
          <mxGeometry x="180" y="210" width="90" height="20" as="geometry" />
        </mxCell>
        <mxCell id="bm_DXyIlBuVDCkVGSls3-4" style="edgeStyle=orthogonalEdgeStyle;rounded=0;orthogonalLoop=1;jettySize=auto;html=1;exitX=1;exitY=0.5;exitDx=0;exitDy=0;entryX=0;entryY=0.5;entryDx=0;entryDy=0;fontSize=15;" parent="WIyWlLk6GJQsqaUBKTNV-1" source="bm_DXyIlBuVDCkVGSls3-2" target="bm_DXyIlBuVDCkVGSls3-3" edge="1">
          <mxGeometry relative="1" as="geometry" />
        </mxCell>
        <mxCell id="bm_DXyIlBuVDCkVGSls3-2" value="预处理" style="rounded=0;whiteSpace=wrap;html=1;fontSize=15;" parent="WIyWlLk6GJQsqaUBKTNV-1" vertex="1">
          <mxGeometry x="297.5" y="245" width="100" height="50" as="geometry" />
        </mxCell>
        <mxCell id="bm_DXyIlBuVDCkVGSls3-7" style="edgeStyle=orthogonalEdgeStyle;rounded=0;orthogonalLoop=1;jettySize=auto;html=1;exitX=1;exitY=0.5;exitDx=0;exitDy=0;entryX=0;entryY=0.5;entryDx=0;entryDy=0;fontSize=15;" parent="WIyWlLk6GJQsqaUBKTNV-1" source="bm_DXyIlBuVDCkVGSls3-3" target="bm_DXyIlBuVDCkVGSls3-6" edge="1">
          <mxGeometry relative="1" as="geometry" />
        </mxCell>
        <mxCell id="bm_DXyIlBuVDCkVGSls3-8" value="Token" style="edgeLabel;html=1;align=center;verticalAlign=middle;resizable=0;points=[];fontSize=15;" parent="bm_DXyIlBuVDCkVGSls3-7" vertex="1" connectable="0">
          <mxGeometry x="-0.12" y="-1" relative="1" as="geometry">
            <mxPoint as="offset" />
          </mxGeometry>
        </mxCell>
        <mxCell id="bm_DXyIlBuVDCkVGSls3-3" value="词法分析" style="rounded=0;whiteSpace=wrap;html=1;fontSize=15;" parent="WIyWlLk6GJQsqaUBKTNV-1" vertex="1">
          <mxGeometry x="467.5" y="245" width="100" height="50" as="geometry" />
        </mxCell>
        <mxCell id="bm_DXyIlBuVDCkVGSls3-10" value="AST" style="edgeStyle=orthogonalEdgeStyle;rounded=0;orthogonalLoop=1;jettySize=auto;html=1;exitX=1;exitY=0.5;exitDx=0;exitDy=0;entryX=0;entryY=0.5;entryDx=0;entryDy=0;fontSize=15;" parent="WIyWlLk6GJQsqaUBKTNV-1" source="bm_DXyIlBuVDCkVGSls3-6" target="bm_DXyIlBuVDCkVGSls3-9" edge="1">
          <mxGeometry relative="1" as="geometry" />
        </mxCell>
        <mxCell id="bm_DXyIlBuVDCkVGSls3-6" value="词法分析" style="rounded=0;whiteSpace=wrap;html=1;fontSize=15;" parent="WIyWlLk6GJQsqaUBKTNV-1" vertex="1">
          <mxGeometry x="637.5" y="245" width="100" height="50" as="geometry" />
        </mxCell>
        <mxCell id="bm_DXyIlBuVDCkVGSls3-12" style="edgeStyle=orthogonalEdgeStyle;rounded=0;orthogonalLoop=1;jettySize=auto;html=1;exitX=1;exitY=0.5;exitDx=0;exitDy=0;entryX=0;entryY=0.5;entryDx=0;entryDy=0;fontSize=15;" parent="WIyWlLk6GJQsqaUBKTNV-1" source="bm_DXyIlBuVDCkVGSls3-9" target="bm_DXyIlBuVDCkVGSls3-11" edge="1">
          <mxGeometry relative="1" as="geometry" />
        </mxCell>
        <mxCell id="bm_DXyIlBuVDCkVGSls3-13" value=".ll" style="edgeLabel;html=1;align=center;verticalAlign=middle;resizable=0;points=[];fontSize=15;" parent="bm_DXyIlBuVDCkVGSls3-12" vertex="1" connectable="0">
          <mxGeometry x="0.0149" y="-1" relative="1" as="geometry">
            <mxPoint as="offset" />
          </mxGeometry>
        </mxCell>
        <mxCell id="bm_DXyIlBuVDCkVGSls3-9" value="IR" style="rounded=0;whiteSpace=wrap;html=1;fontSize=15;" parent="WIyWlLk6GJQsqaUBKTNV-1" vertex="1">
          <mxGeometry x="807.5" y="245" width="100" height="50" as="geometry" />
        </mxCell>
        <mxCell id="bm_DXyIlBuVDCkVGSls3-11" value="bitcode" style="rounded=0;whiteSpace=wrap;html=1;fontSize=15;" parent="WIyWlLk6GJQsqaUBKTNV-1" vertex="1">
          <mxGeometry x="974.5" y="245" width="100" height="50" as="geometry" />
        </mxCell>
        <mxCell id="bm_DXyIlBuVDCkVGSls3-17" value="" style="rounded=0;whiteSpace=wrap;html=1;fontSize=15;" parent="WIyWlLk6GJQsqaUBKTNV-1" vertex="1">
          <mxGeometry x="150" y="410" width="1215" height="160" as="geometry" />
        </mxCell>
        <mxCell id="bm_DXyIlBuVDCkVGSls3-19" value="arm64 后端&amp;nbsp;" style="text;html=1;strokeColor=none;fillColor=none;align=left;verticalAlign=middle;whiteSpace=wrap;rounded=0;fontSize=15;" parent="WIyWlLk6GJQsqaUBKTNV-1" vertex="1">
          <mxGeometry x="180" y="430" width="90" height="20" as="geometry" />
        </mxCell>
        <mxCell id="bm_DXyIlBuVDCkVGSls3-20" style="edgeStyle=orthogonalEdgeStyle;rounded=0;orthogonalLoop=1;jettySize=auto;html=1;exitX=1;exitY=0.5;exitDx=0;exitDy=0;entryX=0;entryY=0.5;entryDx=0;entryDy=0;fontSize=15;" parent="WIyWlLk6GJQsqaUBKTNV-1" source="bm_DXyIlBuVDCkVGSls3-21" target="bm_DXyIlBuVDCkVGSls3-24" edge="1">
          <mxGeometry relative="1" as="geometry" />
        </mxCell>
        <mxCell id="bm_DXyIlBuVDCkVGSls3-31" value="汇编文件（.s）" style="edgeLabel;html=1;align=center;verticalAlign=middle;resizable=0;points=[];fontSize=15;" parent="bm_DXyIlBuVDCkVGSls3-20" vertex="1" connectable="0">
          <mxGeometry y="1" relative="1" as="geometry">
            <mxPoint as="offset" />
          </mxGeometry>
        </mxCell>
        <mxCell id="bm_DXyIlBuVDCkVGSls3-21" value="编译" style="rounded=0;whiteSpace=wrap;html=1;fontSize=15;" parent="WIyWlLk6GJQsqaUBKTNV-1" vertex="1">
          <mxGeometry x="227.5" y="465" width="100" height="50" as="geometry" />
        </mxCell>
        <mxCell id="bm_DXyIlBuVDCkVGSls3-22" style="edgeStyle=orthogonalEdgeStyle;rounded=0;orthogonalLoop=1;jettySize=auto;html=1;exitX=1;exitY=0.5;exitDx=0;exitDy=0;entryX=0;entryY=0.5;entryDx=0;entryDy=0;fontSize=15;" parent="WIyWlLk6GJQsqaUBKTNV-1" source="bm_DXyIlBuVDCkVGSls3-24" target="bm_DXyIlBuVDCkVGSls3-26" edge="1">
          <mxGeometry relative="1" as="geometry" />
        </mxCell>
        <mxCell id="bm_DXyIlBuVDCkVGSls3-23" value="目标文件（.o）" style="edgeLabel;html=1;align=center;verticalAlign=middle;resizable=0;points=[];fontSize=15;" parent="bm_DXyIlBuVDCkVGSls3-22" vertex="1" connectable="0">
          <mxGeometry x="-0.12" y="-1" relative="1" as="geometry">
            <mxPoint x="8" y="-1" as="offset" />
          </mxGeometry>
        </mxCell>
        <mxCell id="bm_DXyIlBuVDCkVGSls3-24" value="汇编" style="rounded=0;whiteSpace=wrap;html=1;fontSize=15;" parent="WIyWlLk6GJQsqaUBKTNV-1" vertex="1">
          <mxGeometry x="467.5" y="465" width="100" height="50" as="geometry" />
        </mxCell>
        <mxCell id="bm_DXyIlBuVDCkVGSls3-25" value="可执行文件Mach-O" style="edgeStyle=orthogonalEdgeStyle;rounded=0;orthogonalLoop=1;jettySize=auto;html=1;exitX=1;exitY=0.5;exitDx=0;exitDy=0;entryX=0;entryY=0.5;entryDx=0;entryDy=0;fontSize=15;" parent="WIyWlLk6GJQsqaUBKTNV-1" source="bm_DXyIlBuVDCkVGSls3-26" target="bm_DXyIlBuVDCkVGSls3-29" edge="1">
          <mxGeometry relative="1" as="geometry" />
        </mxCell>
        <mxCell id="bm_DXyIlBuVDCkVGSls3-26" value="链接" style="rounded=0;whiteSpace=wrap;html=1;fontSize=15;" parent="WIyWlLk6GJQsqaUBKTNV-1" vertex="1">
          <mxGeometry x="707.5" y="465" width="100" height="50" as="geometry" />
        </mxCell>
        <mxCell id="bm_DXyIlBuVDCkVGSls3-27" style="edgeStyle=orthogonalEdgeStyle;rounded=0;orthogonalLoop=1;jettySize=auto;html=1;exitX=1;exitY=0.5;exitDx=0;exitDy=0;entryX=0;entryY=0.5;entryDx=0;entryDy=0;fontSize=15;" parent="WIyWlLk6GJQsqaUBKTNV-1" source="bm_DXyIlBuVDCkVGSls3-29" target="bm_DXyIlBuVDCkVGSls3-30" edge="1">
          <mxGeometry relative="1" as="geometry" />
        </mxCell>
        <mxCell id="bm_DXyIlBuVDCkVGSls3-29" value="绑定架构" style="rounded=0;whiteSpace=wrap;html=1;fontSize=15;" parent="WIyWlLk6GJQsqaUBKTNV-1" vertex="1">
          <mxGeometry x="974.5" y="465" width="100" height="50" as="geometry" />
        </mxCell>
        <mxCell id="bm_DXyIlBuVDCkVGSls3-30" value="arm64&lt;br&gt;可执行&lt;span style=&quot;background-color: rgb(255 , 255 , 255)&quot;&gt;Mach-O&lt;/span&gt;文件" style="rounded=0;whiteSpace=wrap;html=1;fontSize=15;" parent="WIyWlLk6GJQsqaUBKTNV-1" vertex="1">
          <mxGeometry x="1141.5" y="465" width="156" height="50" as="geometry" />
        </mxCell>
      </root>
    </mxGraphModel>
  </diagram>
</mxfile>
